<svg xmlns="http://www.w3.org/2000/svg" version="1.1" xmlns:xlink="http://www.w3.org/1999/xlink" width="512" height="512" x="0" y="0" viewBox="0 0 32 32" style="enable-background:new 0 0 512 512" xml:space="preserve" class=""><g><path d="M29 15h-2c-1.103 0-2 .897-2 2v8H7V7h8c1.103 0 2-.897 2-2V3c0-1.103-.897-2-2-2H5C2.794 1 1 2.794 1 5v22c0 2.206 1.794 4 4 4h22c2.206 0 4-1.794 4-4V17c0-1.103-.897-2-2-2zm0 12c0 1.103-.897 2-2 2H5c-1.103 0-2-.897-2-2V5c0-1.103.897-2 2-2h10v2H7c-1.103 0-2 .897-2 2v18c0 1.103.897 2 2 2h18c1.103 0 2-.897 2-2v-8h2z" fill="#CBD5F5" opacity="1" data-original="#000000" class=""></path><path d="M13.668 12.826c-.114.114-.2.255-.248.41l-1.856 5.948a1 1 0 0 0 1.253 1.252l5.947-1.857a.997.997 0 0 0 .41-.247L30.121 7.385a3.005 3.005 0 0 0 0-4.243l-1.264-1.263c-1.133-1.133-3.109-1.133-4.243 0zm4.265 3.918-3.891 1.215 1.214-3.893 8.475-8.475L26.41 8.27zM26.03 3.293a1.021 1.021 0 0 1 1.414 0l1.263 1.263c.39.39.39 1.025 0 1.415l-.884.884-2.677-2.678.884-.884z" fill="#CBD5F5" opacity="1" data-original="#000000" class=""></path></g></svg>