<svg xmlns="http://www.w3.org/2000/svg" version="1.1" xmlns:xlink="http://www.w3.org/1999/xlink" width="512" height="512" x="0" y="0" viewBox="0 0 1130 1113" style="enable-background:new 0 0 512 512" xml:space="preserve" fill-rule="evenodd"><g><path d="M968.929 286.862a34.923 34.923 0 0 0-.025-1.553l-.005-.129-.003-.067a34.502 34.502 0 0 0-4.166-15.036l-.105-.192a34.692 34.692 0 0 0-5.868-7.809L707.545 10.86l-.241.582a34.795 34.795 0 0 0-12.958-8.563c-2.89-1.405-6.63-2.192-11.381-2.192a2.45 2.45 0 0 0-.172.006c-.2-.004-.403-.005-.606-.006H263.958a103.733 103.733 0 0 0-73.333 30.373c-19.473 19.452-30.388 45.832-30.388 73.369v903.646a103.656 103.656 0 0 0 30.382 73.359 103.733 103.733 0 0 0 73.339 30.379h601.25c57.289 0 103.721-46.424 103.721-103.738zM647.458 70.146h-383.5a34.265 34.265 0 0 0-24.226 10.036l-.016.016a34.224 34.224 0 0 0-10.021 24.231v903.646a34.246 34.246 0 0 0 10.033 24.239l.004.004a34.265 34.265 0 0 0 24.226 10.036h601.25c18.928 0 34.262-15.343 34.262-34.279V321.363H751.2a103.73 103.73 0 0 1-73.362-30.381 103.742 103.742 0 0 1-30.38-73.34zM373.054 903.479h383.058c19.168 0 34.729-15.561 34.729-34.729s-15.561-34.729-34.729-34.729H373.054c-19.168 0-34.729 15.561-34.729 34.729s15.561 34.729 34.729 34.729zm0-190.971h383.058c19.168 0 34.729-15.561 34.729-34.729 0-19.167-15.561-34.729-34.729-34.729H373.054c-19.168 0-34.729 15.562-34.729 34.729 0 19.168 15.561 34.729 34.729 34.729zm0-190.97h383.058c19.168-.001 34.729-15.562 34.729-34.73 0-19.167-15.561-34.729-34.729-34.729H373.054c-19.168 0-34.729 15.562-34.729 34.729 0 19.168 15.561 34.729 34.729 34.73zm343.862-403.077 133.441 133.443H751.2a34.282 34.282 0 0 1-24.247-10.036 34.27 34.27 0 0 1-10.037-24.226z" fill="#000000" opacity="1" data-original="#000000"></path></g></svg>