<svg xmlns="http://www.w3.org/2000/svg" version="1.1" xmlns:xlink="http://www.w3.org/1999/xlink" width="512" height="512" x="0" y="0" viewBox="0 0 490 490.596" style="enable-background:new 0 0 512 512" xml:space="preserve" class=""><g><path d="M58.043 443.316a8.01 8.01 0 0 0 11.32 0l196.801-197.562 8.191 51.058a8.005 8.005 0 0 0 6.665 6.641 8.003 8.003 0 0 0 8.367-4.29l36.8-72.577 80.383 12.578a7.998 7.998 0 0 0 8.414-4.285 8 8 0 0 0-1.523-9.316l-57.648-57.422 36.8-72.578a7.998 7.998 0 0 0-1.515-9.266 7.999 7.999 0 0 0-9.278-1.445l-72.433 37.085-57.657-57.453a8 8 0 0 0-13.542 6.934l12.878 80.352-72.445 37.082a7.997 7.997 0 0 0 2.399 15.023l51.082 8L35.3 409.477c-3.125 3.12-3.125 8.187 0 11.312zM243.988 245.31l-11.312-11.313 19-19.074 9.77 1.531 1.597 9.758zm-36.136-53.434 55.68-28.512a7.997 7.997 0 0 0 4.257-8.383l-9.914-61.777 44.32 44.152a8.005 8.005 0 0 0 9.305 1.457l55.688-28.519-28.297 55.797a8.003 8.003 0 0 0 1.488 9.289l44.328 44.152-61.816-9.664a7.945 7.945 0 0 0-8.368 4.29l-28.296 55.8-9.91-61.777a7.997 7.997 0 0 0-6.665-6.64zm13.535 53.457 11.312 11.313L91.9 397.996l-11.337-11.289zM69.27 398.043l11.335 11.297-16.937 17-11.336-11.297zM57.02 2.258a8.007 8.007 0 0 0-7.61 5.531l-9.703 29.863H8.301A7.996 7.996 0 0 0 .69 43.18a8 8 0 0 0 2.903 8.945L29.02 70.578l-9.72 29.875a7.998 7.998 0 0 0 12.313 8.942L57.02 90.93l25.406 18.465a7.998 7.998 0 0 0 12.313-8.941l-9.72-29.876 25.407-18.453a8 8 0 0 0-4.688-14.473H74.332L64.629 7.79a8.004 8.004 0 0 0-7.61-5.531zm24.097 51.394-10.195 7.399a8.006 8.006 0 0 0-2.902 8.945l3.886 12-10.183-7.41a7.997 7.997 0 0 0-9.407 0l-10.183 7.41 3.887-12a8.006 8.006 0 0 0-2.903-8.945l-10.195-7.399h12.594a8.005 8.005 0 0 0 7.617-5.527l3.887-11.977 3.886 12a8.004 8.004 0 0 0 7.61 5.504zM411.523 403.18a7.996 7.996 0 0 0-7.609-5.528H359.73l-13.648-42.023a7.998 7.998 0 0 0-15.2 0l-13.679 42.023H273.02a8 8 0 0 0-4.704 14.473l35.75 25.973-13.656 42.027a8.004 8.004 0 0 0 2.906 8.945 8.003 8.003 0 0 0 9.407-.004l35.754-25.976 35.734 25.976a8.003 8.003 0 0 0 9.406.004 8.004 8.004 0 0 0 2.906-8.945l-13.648-42.027 35.746-25.973a8.006 8.006 0 0 0 2.902-8.945zm-52.75 25.39a7.998 7.998 0 0 0-2.914 8.946l7.84 24.136-20.52-14.922a7.997 7.997 0 0 0-9.406 0l-20.539 14.922 7.848-24.136a7.994 7.994 0 0 0-2.902-8.946l-20.535-14.918h25.375a8.005 8.005 0 0 0 7.609-5.527l7.848-24.137 7.832 24.137a8 8 0 0 0 7.605 5.527h25.387zM49.02 245.652c22.09 0 40-17.91 40-40 0-22.093-17.91-40-40-40s-40 17.907-40 40c.027 22.078 17.918 39.973 40 40zm0-64c13.253 0 24 10.746 24 24s-10.747 24-24 24c-13.254 0-24-10.746-24-24s10.746-24 24-24zM449.02 301.652c0-17.675-14.329-32-32-32s-32 14.325-32 32c0 17.672 14.328 32 32 32s32-14.328 32-32zm-48 0c0-8.836 7.164-16 16-16 8.835 0 16 7.164 16 16s-7.165 16-16 16c-8.836 0-16-7.164-16-16zM305.02 5.652h16v48h-16zM419.36 48l48-48 11.312 11.313-48 48zM425.02 157.652h48v16h-48zm0 0" fill="#CBD5F5" opacity="1" data-original="#000000" class=""></path></g></svg>