<svg xmlns="http://www.w3.org/2000/svg" version="1.1" xmlns:xlink="http://www.w3.org/1999/xlink" width="512" height="512" x="0" y="0" viewBox="0 0 60 60" style="enable-background:new 0 0 512 512" xml:space="preserve" class=""><g><path fill="#FFEB3A" d="m58.2 14.83-24.81 13.8a6.987 6.987 0 0 1-6.78 0L1.46 14.69A6.014 6.014 0 0 1 7 11h32.84z" opacity="1" data-original="#ffeb3a"></path><path fill="#FFDF00" d="M59 15v34a6 6 0 0 1-6 6H7a6 6 0 0 1-6-6V17a5.915 5.915 0 0 1 .46-2.31l25.15 13.94a6.987 6.987 0 0 0 6.78 0l24.81-13.8h.01z" opacity="1" data-original="#ffdf00" class=""></path><path fill="#FEC108" d="M58.21 14.83h-.01L56 16.054V49a6 6 0 0 1-6 6h3a6 6 0 0 0 6-6V15z" opacity="1" data-original="#fec108" class=""></path><circle cx="49" cy="15" r="10" fill="#02A9F4" opacity="1" data-original="#02a9f4"></circle><path fill="#0377BC" d="M49 5a10.029 10.029 0 0 0-1.5.125 9.986 9.986 0 0 1 0 19.75A9.995 9.995 0 1 0 49 5z" opacity="1" data-original="#0377bc"></path><circle cx="19" cy="38" r="3" fill="#F5F5F5" opacity="1" data-original="#f5f5f5"></circle><circle cx="41" cy="38" r="3" fill="#F5F5F5" opacity="1" data-original="#f5f5f5"></circle><path fill="#EF314C" d="M27 44h6a1 1 0 0 1 1 1v2a4 4 0 0 1-4 4 4 4 0 0 1-4-4v-2a1 1 0 0 1 1-1z" opacity="1" data-original="#ef314c" class=""></path><path fill="#F5F5F5" d="M5 50a1 1 0 0 1-1-1v-2a1 1 0 0 1 2 0v2a1 1 0 0 1-1 1zM5 44a1 1 0 0 1-1-1V24a1 1 0 0 1 2 0v19a1 1 0 0 1-1 1z" opacity="1" data-original="#f5f5f5"></path><path d="M49 4a11 11 0 0 0-9.786 6H7a6.978 6.978 0 0 0-6.461 4.3A6.88 6.88 0 0 0 0 17v32a7.008 7.008 0 0 0 7 7h46a7.008 7.008 0 0 0 7-7V15A11.013 11.013 0 0 0 49 4zM7 12h31.426a10.907 10.907 0 0 0 3.042 11l-8.563 4.76a5.949 5.949 0 0 1-5.81 0L2.8 14.292A4.981 4.981 0 0 1 7 12zm51 37a5.006 5.006 0 0 1-5 5H7a5.006 5.006 0 0 1-5-5V17a5.066 5.066 0 0 1 .08-.822l24.045 13.327a7.944 7.944 0 0 0 7.751 0l9.317-5.179A10.949 10.949 0 0 0 58 21.305zm-9-25a9 9 0 1 1 9-9 9.01 9.01 0 0 1-9 9z" fill="#000000" opacity="1" data-original="#000000"></path><path d="M19 31a1 1 0 0 0 0-2c-4.667 0-5.9 3.533-5.949 3.684a1 1 0 0 0 1.9.632C14.957 33.293 15.758 31 19 31zM41 29a1 1 0 0 0 0 2c3.174 0 4.014 2.213 4.054 2.324a1 1 0 0 0 1.895-.64C46.9 32.533 45.667 29 41 29zM52.4 17.2 50 19V9a1 1 0 0 0-2 0v10l-2.4-1.8a1 1 0 0 0-1.2 1.6l4 3a1 1 0 0 0 1.2 0l4-3a1 1 0 1 0-1.2-1.6zM19 34a4 4 0 0 0-4 4 3.959 3.959 0 0 0 .6 2.084A1 1 0 0 0 16 42h6a1 1 0 0 0 .4-1.916A3.959 3.959 0 0 0 23 38a4 4 0 0 0-4-4zm0 2a2 2 0 1 1-2 2 2 2 0 0 1 2-2zM41 34a4 4 0 0 0-4 4 3.959 3.959 0 0 0 .6 2.084A1 1 0 0 0 38 42h6a1 1 0 0 0 .4-1.916A3.959 3.959 0 0 0 45 38a4 4 0 0 0-4-4zm0 2a2 2 0 1 1-2 2 2 2 0 0 1 2-2zM33 43h-6a2 2 0 0 0-2 2v2a5 5 0 0 0 10 0v-2a2 2 0 0 0-2-2zm0 4a3 3 0 0 1-6 0v-2h6z" fill="#000000" opacity="1" data-original="#000000"></path></g></svg>