<svg xmlns="http://www.w3.org/2000/svg" version="1.1" xmlns:xlink="http://www.w3.org/1999/xlink" width="512" height="512" x="0" y="0" viewBox="0 0 24 24" style="enable-background:new 0 0 512 512" xml:space="preserve"><g><rect width="22" height="22" x="1" y="1" fill="#FFB1E9" rx="6" opacity="1" data-original="#ffb1e9"></rect><path fill="#B5006E" d="M8.138 4.583c-.52-.519-1.426-.519-1.944 0L4.59 6.187a1.374 1.374 0 0 0 0 1.944l11.27 11.271a1.374 1.374 0 0 0 1.945 0L19.41 17.8a1.377 1.377 0 0 0 0-1.945L8.138 4.584zM6.682 8.928 5.238 7.483a.458.458 0 0 1 0-.648l1.604-1.604a.457.457 0 0 1 .648 0l1.444 1.445zM12 6.951a.458.458 0 0 0 .458-.458v-.458h.459a.458.458 0 1 0 0-.917h-.459V4.66a.458.458 0 1 0-.916 0v.458h-.459a.458.458 0 1 0 0 .917h.459v.458c0 .253.205.458.458.458zm3.667 2.75a.458.458 0 0 0 .458-.458v-.458h.458a.458.458 0 1 0 0-.917h-.458V7.41a.458.458 0 1 0-.917 0v.458h-.458a.458.458 0 1 0 0 .917h.458v.458c0 .253.205.458.459.458zm2.75-2.75a.458.458 0 0 0 .458-.458v-.458h.458a.458.458 0 1 0 0-.917h-.458V4.66a.458.458 0 1 0-.917 0v.458H17.5a.458.458 0 1 0 0 .917h.458v.458c0 .253.205.458.459.458z" opacity="1" data-original="#b5006e"></path></g></svg>