<svg xmlns="http://www.w3.org/2000/svg" version="1.1" xmlns:xlink="http://www.w3.org/1999/xlink" width="512" height="512" x="0" y="0" viewBox="0 0 512 512" style="enable-background:new 0 0 512 512" xml:space="preserve" class=""><g><path fill="#CBD5F5" d="M474.426 141.89 354.659 481.809c-4.388 12.454-18.041 18.993-30.495 14.605l-271.983-95.83c-12.454-4.388-18.993-18.041-14.605-30.495L157.343 30.17c4.388-12.454 18.041-18.993 30.495-14.605l271.983 95.83c12.455 4.388 18.993 18.041 14.605 30.495z" opacity="1" data-original="#94c1ff" class=""></path><path fill="#FFFFFF" d="M424.096 75.792v360.401c0 13.204-10.704 23.909-23.909 23.909H111.815c-13.204 0-23.909-10.704-23.909-23.909V75.792c0-13.204 10.704-23.909 23.909-23.909h288.372c13.205 0 23.909 10.704 23.909 23.909z" opacity="1" data-original="#ffffff" class=""></path><path fill="#CBD5F5" d="M121.381 85.355h120.56v111.193h-120.56zM270.065 315.437h120.56V426.63h-120.56z" opacity="1" data-original="#d7e9ff" class=""></path><g fill="#116FFF"><path d="m50.483 405.44 32.278 11.395v19.358c0 16.021 13.032 29.053 29.053 29.053h108.373l102.294 36.036c15.25 5.363 31.741-2.743 37.011-17.749l6.458-18.287h34.235c16.021 0 29.053-13.032 29.053-29.053V285.555l50.013-141.958c5.388-15.168-2.572-31.716-17.699-37.029l-32.314-11.392V75.793c0-16.021-13.032-29.053-29.053-29.053H291.791L189.58 10.731c-14.931-5.308-31.688 2.405-37.081 17.744l-6.449 18.264h-34.234c-16.021 0-29.053 13.032-29.053 29.053v150.582L32.739 368.361c-5.369 15.13 2.586 31.751 17.744 37.079zm299.303 74.678c-3.429 9.768-14.12 14.894-23.894 11.459l-74.738-26.33h103.88zm108.356-363.845c9.756 3.432 14.899 14.089 11.409 23.891l-40.312 114.42V106.083zM162.204 31.891c3.421-9.747 14.136-14.95 23.944-11.459l74.675 26.308h-103.86zM93.051 75.793c0-10.347 8.42-18.764 18.764-18.764h288.371c10.344 0 18.764 8.418 18.764 18.764v360.401c0 10.347-8.42 18.764-18.764 18.764H111.815c-10.344 0-18.764-8.418-18.764-18.764zm-50.611 296 40.322-114.447v148.579L53.9 395.737c-9.775-3.441-14.938-14.162-11.46-23.944z" fill="#116FFF" opacity="1" data-original="#116fff" class=""></path><path d="M280.401 97.343h110.224c2.844 0 5.144-2.303 5.144-5.144s-2.301-5.144-5.144-5.144H280.401c-2.844 0-5.144 2.303-5.144 5.144s2.301 5.144 5.144 5.144zM280.401 146.097h110.224c2.844 0 5.144-2.303 5.144-5.144s-2.301-5.144-5.144-5.144H280.401a5.142 5.142 0 0 0-5.144 5.144 5.143 5.143 0 0 0 5.144 5.144zM280.401 194.849h110.224c2.844 0 5.144-2.303 5.144-5.144s-2.301-5.144-5.144-5.144H280.401a5.142 5.142 0 0 0-5.144 5.144 5.143 5.143 0 0 0 5.144 5.144zM231.604 317.135H121.38c-2.844 0-5.144 2.303-5.144 5.144s2.301 5.144 5.144 5.144h110.224c2.844 0 5.144-2.303 5.144-5.144s-2.3-5.144-5.144-5.144zM231.604 365.889H121.38c-2.844 0-5.144 2.303-5.144 5.144s2.301 5.144 5.144 5.144h110.224c2.844 0 5.144-2.303 5.144-5.144s-2.3-5.144-5.144-5.144zM231.604 414.641H121.38c-2.844 0-5.144 2.303-5.144 5.144s2.301 5.144 5.144 5.144h110.224c2.844 0 5.144-2.303 5.144-5.144s-2.3-5.144-5.144-5.144zM121.375 236.76H390.62c2.844 0 5.144-2.303 5.144-5.144s-2.301-5.144-5.144-5.144H121.375c-2.844 0-5.144 2.303-5.144 5.144s2.301 5.144 5.144 5.144zM121.375 285.512H390.62c2.844 0 5.144-2.303 5.144-5.144s-2.301-5.144-5.144-5.144H121.375c-2.844 0-5.144 2.303-5.144 5.144s2.301 5.144 5.144 5.144zM390.625 310.293H270.067a5.142 5.142 0 0 0-5.144 5.144v111.194a5.143 5.143 0 0 0 5.144 5.144h120.558a5.142 5.142 0 0 0 5.144-5.144V315.437a5.141 5.141 0 0 0-5.144-5.144zm-5.144 111.193H275.212V320.582h110.269zM121.38 201.691h120.563a5.142 5.142 0 0 0 5.144-5.144V85.356a5.143 5.143 0 0 0-5.144-5.144H121.38a5.142 5.142 0 0 0-5.144 5.144v111.191a5.143 5.143 0 0 0 5.144 5.144zM126.525 90.5h110.274v100.902H126.525z" fill="#116FFF" opacity="1" data-original="#116fff" class=""></path></g></g></svg>